<svg width="486" height="512" viewBox="0 0 486 512" fill="none" xmlns="http://www.w3.org/2000/svg">
<g clip-path="url(#clip0_136_103)">
<path d="M242.98 510.098C372.552 510.098 477.591 405.059 477.591 275.486C477.591 145.914 372.552 40.875 242.98 40.875C113.407 40.875 8.36816 145.914 8.36816 275.486C8.36816 405.059 113.407 510.098 242.98 510.098Z" stroke="#123828" stroke-miterlimit="10"/>
<path d="M242.98 487.212C359.913 487.212 454.706 392.42 454.706 275.487C454.706 158.554 359.913 63.7607 242.98 63.7607C126.047 63.7607 31.2539 158.554 31.2539 275.487C31.2539 392.42 126.047 487.212 242.98 487.212Z" stroke="#123828" stroke-miterlimit="10"/>
<path d="M242.98 466.564C348.509 466.564 434.058 381.016 434.058 275.487C434.058 169.958 348.509 84.4092 242.98 84.4092C137.451 84.4092 51.9023 169.958 51.9023 275.487C51.9023 381.016 137.451 466.564 242.98 466.564Z" stroke="#123828" stroke-miterlimit="10"/>
<path d="M242.98 81.0786C265.184 81.0786 283.184 63.0788 283.184 40.8748C283.184 18.6708 265.184 0.670898 242.98 0.670898C220.776 0.670898 202.776 18.6708 202.776 40.8748C202.776 63.0788 220.776 81.0786 242.98 81.0786Z" stroke="#123828" stroke-miterlimit="10"/>
<path d="M40.8591 431.285C63.0631 431.285 81.063 413.285 81.063 391.081C81.063 368.877 63.0631 350.877 40.8591 350.877C18.6552 350.877 0.655273 368.877 0.655273 391.081C0.655273 413.285 18.6552 431.285 40.8591 431.285Z" stroke="#123828" stroke-miterlimit="10"/>
<path d="M445.1 431.285C467.304 431.285 485.304 413.285 485.304 391.081C485.304 368.877 467.304 350.877 445.1 350.877C422.896 350.877 404.896 368.877 404.896 391.081C404.896 413.285 422.896 431.285 445.1 431.285Z" stroke="#123828" stroke-miterlimit="10"/>
<path d="M242.98 391.081C306.821 391.081 358.575 339.328 358.575 275.486C358.575 211.645 306.821 159.892 242.98 159.892C179.138 159.892 127.385 211.645 127.385 275.486C127.385 339.328 179.138 391.081 242.98 391.081Z" stroke="#123828" stroke-miterlimit="10"/>
<path d="M242.98 311.133C262.667 311.133 278.626 295.174 278.626 275.487C278.626 255.8 262.667 239.841 242.98 239.841C223.293 239.841 207.334 255.8 207.334 275.487C207.334 295.174 223.293 311.133 242.98 311.133Z" stroke="#123828" stroke-width="4" stroke-miterlimit="10"/>
<path d="M242.98 298.744C255.824 298.744 266.237 288.331 266.237 275.487C266.237 262.642 255.824 252.229 242.98 252.229C230.135 252.229 219.723 262.642 219.723 275.487C219.723 288.331 230.135 298.744 242.98 298.744Z" stroke="#123828" stroke-width="4" stroke-miterlimit="10"/>
<path d="M242.98 289.165C250.534 289.165 256.658 283.041 256.658 275.487C256.658 267.932 250.534 261.809 242.98 261.809C235.426 261.809 229.302 267.932 229.302 275.487C229.302 283.041 235.426 289.165 242.98 289.165Z" stroke="#123828" stroke-width="4" stroke-miterlimit="10"/>
<path d="M242.98 40.9971L40.8594 391.081H445.101L242.98 40.9971Z" stroke="#123828" stroke-miterlimit="10"/>
<path d="M128.185 274.389L300.375 373.802V174.977L128.185 274.389Z" stroke="#123828" stroke-miterlimit="10"/>
<path d="M357.771 274.389L185.585 174.977V373.802L357.771 274.389Z" stroke="#123828" stroke-miterlimit="10"/>
<path d="M279.238 275.486C279.244 288.553 275.916 301.405 269.569 312.827C263.222 324.25 254.066 333.864 242.967 340.76C231.875 333.857 222.724 324.241 216.38 312.82C210.035 301.399 206.706 288.549 206.706 275.484C206.706 262.419 210.035 249.569 216.38 238.148C222.724 226.726 231.875 217.11 242.967 210.207C254.067 217.104 263.223 226.719 269.57 238.142C275.917 249.565 279.244 262.418 279.238 275.486Z" stroke="#123828" stroke-width="4" stroke-miterlimit="10"/>
</g>
<defs>
<clipPath id="clip0_136_103">
<rect width="485.96" height="511.612" fill="white" transform="translate(0 0.015625)"/>
</clipPath>
</defs>
</svg>
