<svg width="33" height="26" viewBox="0 0 33 26" fill="none" xmlns="http://www.w3.org/2000/svg">
<path d="M3.29995 26H19.1727C20.1249 26.0005 21.0658 25.7885 21.9309 25.3785C22.7959 24.9686 23.5645 24.3704 24.1837 23.6251L32.6018 13.5067C32.7781 13.2952 32.9012 13.0423 32.9602 12.7702C33.0193 12.4981 33.0125 12.2153 32.9404 11.9466C32.8684 11.6778 32.7333 11.4315 32.5471 11.2292C32.3608 11.027 32.1292 10.875 31.8725 10.7867L28.6254 9.67154C27.8406 9.4087 27.005 9.34923 26.1926 9.49838C25.3801 9.64752 24.6159 10.0007 23.9675 10.5266L18.7123 14.8565L17.6943 12.757C17.1489 11.6253 16.3069 10.6735 15.2635 10.0095C14.2201 9.34554 13.0171 8.99584 11.7907 9.00004H3.29995C1.48003 9.00004 0 10.5249 0 12.4V22.6C0 24.4751 1.48003 26 3.29995 26ZM3.29995 12.4H11.7907C13.0496 12.4 14.1799 13.1191 14.7425 14.2785L15.4801 15.8H8.24987V19.2H18.1728C18.4267 19.1966 18.6763 19.1325 18.9021 19.013L18.907 19.0113L18.9136 19.0079H18.9186L18.9219 19.0062H18.9285L18.9301 19.0045C18.9483 19.0096 18.9351 19.0028 18.9351 19.0028C18.9549 19.0028 18.9384 19.0011 18.9384 19.0011H18.94L18.9433 18.9994L18.9483 18.9977L18.9516 18.996L18.9549 18.9943L18.9598 18.9926L18.9631 18.9909L18.9664 18.9892L18.9714 18.9858L18.9747 18.9841L18.978 18.9824L18.9829 18.9807L18.9862 18.979H18.9879L18.9912 18.9773L18.9961 18.9756L18.9994 18.9739C19.0176 18.9722 19.0044 18.9722 19.0044 18.9722L19.0077 18.9705C19.0713 18.931 19.1319 18.8867 19.1892 18.8379L26.03 13.199C26.4606 12.8454 27.0579 12.7349 27.581 12.9151L28.5 13.2313L21.6807 21.4304C21.367 21.7974 20.9811 22.0915 20.5488 22.2931C20.1164 22.4947 19.6473 22.5994 19.1727 22.6H3.29995V12.4Z" fill="#6A1C1C"/>
<g clip-path="url(#clip0_1107_5)">
<path d="M13 3.32254C13 6.14733 15.4117 7.65264 17.177 9C17.8 9.47546 18.4 9.92309 19 9.92309C19.6 9.92309 20.2 9.47546 20.823 9C22.5884 7.65264 25 6.14733 25 3.32254C25 0.497727 21.6999 -1.50557 19 1.21017C16.3001 -1.50557 13 0.497727 13 3.32254Z" fill="#6A1C1C"/>
</g>
<defs>
<clipPath id="clip0_1107_5">
<rect width="14" height="11" fill="white" transform="translate(12)"/>
</clipPath>
</defs>
</svg>
