<svg width="38" height="38" viewBox="0 0 38 38" fill="none" xmlns="http://www.w3.org/2000/svg">
<g clip-path="url(#clip0_679_683)">
<path d="M9.5 3.1665V6.33317H7.91667C6.175 6.33317 4.75 7.75817 4.75 9.49984V31.6665C4.75 33.4082 6.175 34.8332 7.91667 34.8332H30.0833C31.825 34.8332 33.25 33.4082 33.25 31.6665V9.49984C33.25 7.75817 31.825 6.33317 30.0833 6.33317H28.5V3.1665H25.3333V6.33317H12.6667V3.1665H9.5ZM7.91667 14.2498H30.0833V31.6665H7.91667V14.2498Z" fill="#6A1C1C"/>
<path d="M25.9663 19L19.6329 25.65L16.6246 22.8L14.7246 24.7L18.6829 28.5L19.6329 29.6083L20.5829 28.5L27.8663 20.9L25.9663 19Z" fill="#6A1C1C"/>
</g>
<defs>
<clipPath id="clip0_679_683">
<rect width="38" height="38" fill="white"/>
</clipPath>
</defs>
</svg>
