<svg width="27" height="27" viewBox="0 0 27 27" fill="none" xmlns="http://www.w3.org/2000/svg">
<path d="M9.65676 4.60132C11.3667 1.53378 12.2217 0 13.5 0C14.7783 0 15.6333 1.53376 17.3432 4.60131L17.7856 5.39492C18.2716 6.26661 18.5144 6.70248 18.8934 6.99005C19.2722 7.27763 19.7439 7.38438 20.6875 7.59788L21.5467 7.79225C24.8671 8.54357 26.5275 8.91922 26.9225 10.1895C27.3175 11.4596 26.1857 12.7833 23.9218 15.4304L23.3362 16.1152C22.6929 16.8675 22.3712 17.2436 22.2265 17.7089C22.0819 18.1743 22.1305 18.6761 22.2277 19.6798L22.3163 20.5935C22.6585 24.1253 22.8297 25.8913 21.7956 26.6763C20.7614 27.4613 19.2068 26.7456 16.0978 25.3142L15.2935 24.9437C14.41 24.537 13.9683 24.3335 13.5 24.3335C13.0317 24.3335 12.59 24.537 11.7065 24.9437L10.9022 25.3142C7.79311 26.7456 6.23859 27.4613 5.20445 26.6763C4.17031 25.8913 4.34143 24.1253 4.68369 20.5935L4.77222 19.6798C4.86949 18.6761 4.91811 18.1743 4.77341 17.7089C4.62872 17.2436 4.30708 16.8675 3.66379 16.1152L3.07813 15.4304C0.814389 12.7833 -0.31749 11.4596 0.0775195 10.1895C0.472529 8.91922 2.13281 8.54357 5.45337 7.79225L6.31245 7.59788C7.25604 7.38438 7.72784 7.27763 8.10666 6.99005C8.48549 6.70248 8.72846 6.26663 9.21438 5.39492L9.65676 4.60132Z" fill="#6A1C1C"/>
</svg>
