<svg width="26" height="29" viewBox="0 0 26 29" fill="none" xmlns="http://www.w3.org/2000/svg">
<path d="M1 24.3333V5.66667C1 4.03319 1 3.21643 1.3179 2.59253C1.59752 2.04371 2.04371 1.59752 2.59253 1.3179C3.21643 1 4.03319 1 5.66667 1H19.6667C21.3001 1 22.117 1 22.7408 1.3179C23.2896 1.59752 23.7359 2.04371 24.0154 2.59253C24.3333 3.21643 24.3333 4.03319 24.3333 5.66667V21.4167H3.91667C2.30584 21.4167 1 22.7225 1 24.3333ZM1 24.3333C1 25.9442 2.30584 27.25 3.91667 27.25H24.3333M8.29167 6.83333H17.0417M8.29167 12.6667H17.0417M22.875 21.4167V27.25" stroke="#6A1C1C" stroke-width="2" stroke-linecap="round" stroke-linejoin="round"/>
</svg>
