<svg width="38" height="26" viewBox="0 0 38 26" fill="none" xmlns="http://www.w3.org/2000/svg">
<path d="M27.4267 5.37993C27.4267 6.73047 28.5262 7.82531 29.8826 7.82531C31.239 7.82531 32.3386 6.73047 32.3386 5.37993C32.3386 4.02939 31.239 2.93455 29.8826 2.93455C28.5262 2.93455 27.4267 4.02939 27.4267 5.37993ZM24.9101 13.5666V11.6568C24.9101 9.97837 26.2862 8.60155 27.9786 8.60155H31.996C33.6817 8.60155 35.0645 9.97176 35.0645 11.6568V13.5666H24.9101ZM14.1325 0V3.53482C13.6996 3.53482 12.8906 3.62716 12.3079 3.80268C10.7514 4.27157 9.43818 5.32063 8.63324 7.0737L0 26H11.875L12.6394 23.4636C15.9859 22.655 18.4915 20.0935 19.502 16.8732L19.5147 16.8734C19.5398 16.7611 19.5733 16.6507 19.6092 16.541H38V0H14.1325ZM36.8125 15.3586H17.1012C16.6553 17.6294 14.9681 19.6953 12.6944 20.6201C12.621 20.6499 12.5448 20.6641 12.47 20.6641C12.236 20.6641 12.0142 20.5253 11.9201 20.2964C11.7961 19.9941 11.9417 19.6491 12.2452 19.5255C14.4721 18.6199 16.0279 16.4236 16.0309 14.183V13.5853H22.1208C23.0205 13.5851 23.7498 12.859 23.7498 11.9633C23.7498 11.0681 23.0215 10.3422 22.1223 10.3414L11.4296 10.3335C11.1017 10.3335 10.8357 10.0688 10.8357 9.74219C10.8357 9.41563 11.1016 9.15093 11.4296 9.15093H15.3199V1.18238H36.8124V15.3586H36.8125ZM17.1012 3.53482H23.75V4.7172H17.1012V3.53482ZM17.1012 6.49084H23.75V7.67322H17.1012V6.49084Z" fill="#6A1C1C"/>
</svg>
