<svg width="39" height="34" viewBox="0 0 39 34" fill="none" xmlns="http://www.w3.org/2000/svg">
<path d="M29.7972 0.000145762C32.1219 0.000145559 34.2352 0.845486 36.1372 2.53616C37.8279 4.22681 38.7789 6.34015 38.9902 8.87615L38.9902 9.19314C38.9902 13.6311 38.0392 17.5408 36.1372 20.9221C34.2352 24.5148 32.3332 27.3678 30.4312 29.4811C28.5292 31.5945 27.3669 32.7568 26.9442 32.9682C26.7329 33.1795 26.4159 33.2852 25.9932 33.2852C25.5706 33.2852 25.2536 33.0738 25.0422 32.6511C24.6196 32.4398 24.4082 32.1228 24.4082 31.7002C24.4082 31.2775 24.5139 30.9605 24.7252 30.7492C24.9366 30.7492 25.6762 30.1152 26.9442 28.8472C28.0009 27.7905 29.2689 26.2055 30.7482 24.0921C32.0162 22.1901 33.1786 19.8655 34.2352 17.1182C32.9672 17.9635 31.4879 18.3862 29.7972 18.3862C27.2612 18.3862 25.1479 17.4352 23.4572 15.5332C21.5552 13.8425 20.6042 11.7291 20.6042 9.19314C20.6042 6.65715 21.5552 4.43816 23.4572 2.53616C25.1479 0.845487 27.2612 0.000145984 29.7972 0.000145762ZM9.19223 0.000147564C11.7282 0.000147342 13.9472 0.845488 15.8492 2.53616C17.5399 4.43816 18.3852 6.65715 18.3852 9.19314C18.3852 16.5898 15.6379 23.3525 10.1432 29.4812L6.33923 32.9682C6.1279 33.1795 5.8109 33.2852 5.38823 33.2852C4.5429 33.2852 4.12023 32.8625 4.12023 32.0172C4.12023 31.3831 4.2259 30.9605 4.43723 30.7492C4.64857 30.7492 5.28257 30.2208 6.33923 29.1642C9.9319 25.1488 12.4679 21.1335 13.9472 17.1182C12.4679 17.9635 10.8829 18.3862 9.19223 18.3862C6.65623 18.3862 4.54289 17.4352 2.85223 15.5332C0.950232 13.8425 -0.000768639 11.7291 -0.00076886 9.19314C-0.000769082 6.65715 0.950231 4.43816 2.85223 2.53616C4.54289 0.845489 6.65623 0.000147785 9.19223 0.000147564Z" fill="#2E7B59"/>
</svg>
