<svg width="39" height="34" viewBox="0 0 39 34" fill="none" xmlns="http://www.w3.org/2000/svg">
<path d="M9.193 33.285C6.86833 33.285 4.755 32.4397 2.853 30.749C1.16233 29.0583 0.211333 26.945 0 24.409V24.092C0 19.654 0.951 15.7443 2.853 12.363C4.755 8.77034 6.657 5.91734 8.559 3.80401C10.461 1.69068 11.6233 0.528337 12.046 0.316994C12.2573 0.105663 12.5743 0 12.997 0C13.4197 0 13.7367 0.211336 13.948 0.63401C14.3707 0.845341 14.582 1.16234 14.582 1.585C14.582 2.00767 14.4763 2.32467 14.265 2.536C14.0537 2.536 13.314 3.17001 12.046 4.438C10.9893 5.49467 9.72133 7.07967 8.242 9.19302C6.974 11.095 5.81167 13.4197 4.755 16.167C6.023 15.3217 7.50233 14.899 9.193 14.899C11.729 14.899 13.8423 15.85 15.533 17.752C17.435 19.4427 18.386 21.556 18.386 24.092C18.386 26.628 17.435 28.847 15.533 30.749C13.8423 32.4397 11.729 33.285 9.193 33.285ZM29.798 33.285C27.262 33.285 25.043 32.4397 23.141 30.749C21.4503 28.847 20.605 26.628 20.605 24.092C20.605 16.6953 23.3523 9.93267 28.847 3.80401L32.651 0.316994C32.8623 0.105663 33.1793 0 33.602 0C34.4473 0 34.87 0.42267 34.87 1.26801C34.87 1.90201 34.7643 2.32467 34.553 2.536C34.3417 2.536 33.7077 3.06434 32.651 4.121C29.0583 8.13633 26.5223 12.1517 25.043 16.167C26.5223 15.3217 28.1073 14.899 29.798 14.899C32.334 14.899 34.4473 15.85 36.138 17.752C38.04 19.4427 38.991 21.556 38.991 24.092C38.991 26.628 38.04 28.847 36.138 30.749C34.4473 32.4397 32.334 33.285 29.798 33.285Z" fill="#2E7B59"/>
</svg>
