<svg width="505" height="24" viewBox="0 0 505 24" fill="none" xmlns="http://www.w3.org/2000/svg">
<rect width="505" height="0.999912" transform="matrix(1 -1.74846e-07 -1.74846e-07 -1 0 24)" fill="#966940"/>
<g clip-path="url(#clip0_845_4)">
<path d="M263.342 1.69092C260.435 1.69092 257.735 2.75481 255.873 4.65483C253.878 6.68277 252.938 9.45793 253.15 12.6792C253.451 17.2624 256.892 20.5508 261.519 20.6756C265.624 20.7863 268.832 17.916 268.975 14.0021C269.044 12.0833 268.413 10.2691 267.248 9.02114C266.773 8.50788 266.2 8.09505 265.561 7.80743C264.922 7.5198 264.231 7.3633 263.53 7.34731C261.085 7.26932 259.033 8.88699 258.863 11.0288C258.706 12.9944 259.909 14.6635 261.597 14.8289C263.011 14.9692 264.11 14.1425 264.457 12.6761C264.484 12.5619 264.464 12.4418 264.402 12.3422C264.339 12.2426 264.24 12.1716 264.125 12.1449C264.01 12.1183 263.889 12.138 263.789 12.1999C263.688 12.2618 263.617 12.3607 263.59 12.4749C263.348 13.506 262.648 14.0426 261.683 13.949C260.484 13.8305 259.642 12.5794 259.75 11.099C259.882 9.42829 261.526 8.16941 263.502 8.23181C264.086 8.24527 264.661 8.37558 265.193 8.61494C265.725 8.8543 266.202 9.19779 266.597 9.62485C267.609 10.7012 268.154 12.2846 268.093 13.9693C267.968 17.3856 265.153 19.8878 261.552 19.7911C257.337 19.6772 254.328 16.796 254.046 12.6153C253.85 9.65136 254.706 7.1102 256.517 5.26633C258.327 3.42246 260.922 2.45841 263.802 2.58164C268.468 2.77352 272.44 5.83103 275.962 11.932C278.746 16.7679 282.211 21.2621 288.658 21.4743C291.313 21.5365 293.885 20.5541 295.814 18.7412C297.677 16.9707 298.675 14.6276 298.704 11.9694C298.732 9.25201 297.761 6.806 295.963 5.07913C295.13 4.2842 294.142 3.66782 293.059 3.26825C291.976 2.86868 290.822 2.69444 289.669 2.75635C286.002 2.91235 283.241 5.44104 283.106 8.7731C283.079 9.52822 283.206 10.281 283.482 10.9853C283.757 11.6897 284.175 12.3308 284.708 12.8695C285.187 13.3696 285.764 13.7662 286.404 14.0346C287.045 14.303 287.734 14.4374 288.428 14.4295C289.237 14.4294 290.013 14.1121 290.588 13.5466C290.857 13.2702 291.067 12.9431 291.206 12.5846C291.346 12.2261 291.412 11.8435 291.4 11.4593C291.397 11.12 291.324 10.7847 291.186 10.4745C291.047 10.1642 290.846 9.88566 290.594 9.65604C290.338 9.42509 290.037 9.24875 289.71 9.13793C289.383 9.02711 289.037 8.98417 288.692 9.01178C288.578 9.02498 288.474 9.08133 288.4 9.16911C288.327 9.25689 288.291 9.36933 288.299 9.48305C288.307 9.59678 288.359 9.70303 288.444 9.7797C288.529 9.85638 288.64 9.89756 288.755 9.89471C288.979 9.876 289.204 9.90302 289.418 9.97412C289.631 10.0452 289.827 10.1589 289.994 10.3081C290.156 10.4576 290.285 10.6384 290.374 10.8393C290.463 11.0402 290.509 11.2571 290.511 11.4765C290.52 11.7431 290.475 12.0089 290.379 12.258C290.283 12.5072 290.137 12.7347 289.952 12.9273C289.541 13.3288 288.987 13.5531 288.411 13.5512C287.838 13.558 287.27 13.4473 286.743 13.2262C286.215 13.005 285.739 12.6781 285.344 12.2658C284.896 11.8129 284.545 11.2741 284.313 10.6823C284.081 10.0904 283.973 9.45778 283.995 8.82302C284.127 5.58144 286.968 3.77033 289.707 3.65489C290.739 3.59866 291.772 3.75366 292.741 4.11028C293.711 4.4669 294.596 5.01755 295.343 5.72808C296.962 7.28803 297.838 9.50317 297.813 11.9679C297.782 15.0192 296.373 16.9925 295.198 18.111C293.44 19.7596 291.097 20.6516 288.68 20.5929C282.669 20.3948 279.382 16.1033 276.727 11.4937C273.046 5.10877 268.827 1.90463 263.832 1.70028C263.669 1.69403 263.504 1.69092 263.342 1.69092Z" fill="#966940"/>
<path d="M281.146 3.47573C281.038 3.476 280.933 3.5154 280.852 3.58659C280.771 3.65777 280.719 3.75588 280.705 3.8626C280.198 7.83268 277.668 9.246 274.99 10.7436C272.226 12.2895 269.368 13.8869 269.088 18.3998C269.085 18.4577 269.093 18.5157 269.111 18.5705C269.13 18.6254 269.16 18.676 269.199 18.7194C269.237 18.7629 269.284 18.7984 269.337 18.8238C269.389 18.8493 269.446 18.8642 269.504 18.8678C269.563 18.8714 269.621 18.8635 269.676 18.8447C269.731 18.8259 269.782 18.7964 269.826 18.758C269.87 18.7197 269.906 18.6731 269.931 18.621C269.957 18.5689 269.972 18.5123 269.976 18.4544C270.225 14.4219 272.752 13.0102 275.427 11.5142C278.178 9.97606 281.024 8.38491 281.587 3.97336C281.595 3.91587 281.591 3.85748 281.576 3.80155C281.56 3.74561 281.534 3.69324 281.498 3.64744C281.463 3.60163 281.418 3.56328 281.367 3.53462C281.317 3.50595 281.261 3.48753 281.203 3.4804L281.146 3.47573Z" fill="#966940"/>
<path d="M265.575 0.00160814C265.461 0.00602367 265.353 0.0535376 265.273 0.134402C265.194 0.215264 265.148 0.323353 265.146 0.436489C265.144 0.549626 265.186 0.65923 265.263 0.742834C265.339 0.826439 265.445 0.877699 265.559 0.886101C270.526 1.06393 274.914 5.54881 277.364 9.68581C279.753 13.7199 282.724 18.7335 288.607 18.6696C292.095 18.6275 294.575 16.9256 295.96 13.6122C295.997 13.5056 295.993 13.3888 295.946 13.2856C295.9 13.1824 295.816 13.1006 295.711 13.057C295.606 13.0133 295.489 13.0112 295.382 13.0509C295.276 13.0906 295.189 13.1692 295.138 13.2706C293.882 16.2704 291.74 17.7477 288.596 17.7851L288.485 17.7851C283.594 17.7851 280.901 13.9117 278.132 9.23498C275.563 4.89675 270.919 0.18724 265.592 4.60142e-05L265.575 0.00160814ZM263.312 3.86562C261.525 3.86562 259.772 4.39288 258.443 5.3741C257.739 5.87644 257.157 6.52995 256.742 7.28611C256.326 8.04227 256.088 8.88166 256.044 9.74197C256.044 9.85497 256.087 9.96374 256.165 10.046C256.243 10.1284 256.349 10.178 256.463 10.1848C256.577 10.1915 256.688 10.155 256.776 10.0825C256.863 10.0101 256.919 9.90721 256.933 9.79501C256.971 9.06465 257.175 8.35227 257.528 7.71067C257.882 7.06906 258.376 6.51467 258.974 6.08856C260.589 4.89207 262.938 4.45841 265.107 4.95915C269.072 5.8764 271.8 9.48301 273.389 12.3502C276.229 17.4653 279.255 21.231 284.802 22.986C284.914 23.0216 285.036 23.0113 285.141 22.9575C285.246 22.9037 285.325 22.8107 285.361 22.699C285.397 22.5872 285.386 22.466 285.332 22.3618C285.278 22.2577 285.184 22.1792 285.072 22.1436C279.806 20.4776 276.906 16.8522 274.17 11.9228C272.491 8.89959 269.592 5.08862 265.309 4.09805C264.654 3.94607 263.984 3.8681 263.312 3.86562Z" fill="#966940"/>
<path d="M305.792 5.63747C305.423 5.63934 305.055 5.67695 304.693 5.74979C303.408 6.0142 302.209 6.5891 301.2 7.42363C299.495 8.88218 298.446 10.1255 297.785 12.5216C297.754 12.6347 297.769 12.7555 297.828 12.8573C297.886 12.9591 297.983 13.0336 298.097 13.0644C298.211 13.0952 298.333 13.0799 298.435 13.0216C298.538 12.9634 298.613 12.8671 298.644 12.754C299.247 10.5701 300.173 9.46872 301.785 8.0944C302.678 7.36092 303.738 6.85396 304.872 6.61712C305.557 6.4814 306.812 6.37221 307.496 7.16623C307.856 7.57962 307.897 8.1646 307.619 8.90402C307.331 9.59689 306.932 10.2394 306.439 10.8072C303.456 10.9164 300.288 12.2439 299.567 13.7149C299.448 13.9278 299.394 14.1705 299.413 14.4133C299.431 14.6562 299.52 14.8884 299.669 15.0814C299.875 15.3482 300.297 15.6415 301.103 15.5213C302.658 15.292 305.16 13.6151 306.863 11.6839C310.125 11.6948 313.302 13.3889 314.004 15.5042C314.104 15.8058 314.133 16.1262 314.088 16.4406C314.043 16.755 313.926 17.0549 313.745 17.3169C313.451 17.751 313.059 18.1102 312.599 18.3651C310.07 16.4214 306.43 15.4746 304.516 15.7319C303.25 15.902 302.978 16.5494 302.929 16.9206C302.884 17.2654 303.032 17.6117 303.365 17.9502C304.494 19.0952 307.892 20.1997 310.589 19.9048C311.238 19.8368 311.873 19.6728 312.473 19.4181C313.18 19.9972 313.745 20.7293 314.124 21.5584C314.169 21.6664 314.257 21.7518 314.366 21.796C314.475 21.8402 314.598 21.8394 314.706 21.7939C314.815 21.7484 314.901 21.6619 314.946 21.5533C314.99 21.4448 314.989 21.3232 314.943 21.2152C314.563 20.3603 314.007 19.5936 313.312 18.9642C313.784 18.66 314.187 18.2622 314.497 17.7958C314.749 17.4229 314.912 16.9981 314.974 16.5536C315.036 16.1091 314.995 15.6564 314.855 15.2296C314.006 12.6448 310.633 11.049 307.556 10.8274C307.926 10.3307 308.229 9.78788 308.457 9.21289C308.955 7.88849 308.58 7.05547 308.176 6.58904C307.631 5.96194 306.813 5.63747 305.792 5.63747ZM300.747 14.6649C300.68 14.6719 300.613 14.6648 300.55 14.6441C300.487 14.6234 300.428 14.5895 300.379 14.5448C300.31 14.4543 300.255 14.3327 300.368 14.1018C300.781 13.261 302.911 12.0739 305.565 11.7619C304.065 13.2407 302.157 14.4731 300.974 14.6478C300.899 14.6589 300.823 14.6647 300.747 14.6649ZM309.664 19.0687C307.328 19.0687 304.772 18.1124 304.01 17.3325C303.853 17.1655 303.818 17.061 303.821 17.0361C303.861 16.7444 304.41 16.6398 304.644 16.6086C306.215 16.3965 309.356 17.2061 311.652 18.7926C311.276 18.9111 310.888 18.9922 310.496 19.0344C310.219 19.0611 309.941 19.0726 309.664 19.0687Z" fill="#966940"/>
<path d="M241.659 1.69108C241.497 1.69108 241.334 1.6942 241.169 1.70044C236.173 1.9048 231.955 5.10894 228.274 11.4938C225.618 16.1035 222.331 20.3949 216.321 20.5931C213.904 20.6457 211.565 19.7488 209.81 18.0971C208.635 16.9786 207.227 15.0053 207.195 11.954C207.17 9.48306 208.048 7.2648 209.665 5.71421C210.412 5.00356 211.298 4.45285 212.268 4.09623C213.238 3.73961 214.271 3.58468 215.303 3.64103C218.041 3.75647 220.882 5.56757 221.014 8.80916C221.036 9.44392 220.927 10.0765 220.696 10.6684C220.464 11.2603 220.113 11.7991 219.665 12.252C219.27 12.6639 218.794 12.9907 218.267 13.2119C217.739 13.433 217.172 13.5438 216.599 13.5374C216.023 13.5396 215.469 13.3153 215.058 12.9134C214.872 12.7213 214.726 12.4938 214.63 12.2445C214.534 11.9953 214.49 11.7294 214.499 11.4626C214.5 11.2431 214.546 11.026 214.635 10.825C214.724 10.6239 214.854 10.4433 215.016 10.2942C215.183 10.145 215.379 10.0313 215.592 9.96017C215.805 9.88907 216.03 9.86208 216.254 9.88085C216.313 9.88779 216.374 9.88259 216.432 9.86558C216.49 9.84857 216.543 9.82011 216.59 9.7819C216.636 9.74369 216.674 9.69653 216.702 9.64327C216.729 9.59001 216.746 9.53176 216.75 9.47203C216.754 9.4123 216.746 9.35234 216.727 9.29576C216.707 9.23919 216.676 9.18717 216.635 9.14286C216.595 9.09855 216.546 9.06285 216.491 9.03794C216.436 9.01303 216.377 8.99941 216.316 8.99791C215.972 8.97021 215.625 9.0131 215.298 9.12392C214.971 9.23475 214.67 9.41114 214.415 9.64217C214.163 9.87202 213.962 10.1507 213.823 10.4608C213.685 10.771 213.612 11.1061 213.609 11.4455C213.597 11.8298 213.663 12.2126 213.802 12.5711C213.942 12.9296 214.153 13.2566 214.422 13.5327C214.997 14.0985 215.773 14.4158 216.582 14.4156C217.276 14.4246 217.965 14.2907 218.606 14.0222C219.246 13.7537 219.823 13.3566 220.301 12.8557C220.834 12.3168 221.251 11.6757 221.527 10.9714C221.802 10.2671 221.931 9.51442 221.904 8.75924C221.767 5.42718 219.008 2.89693 215.341 2.74249C214.187 2.68036 213.033 2.85449 211.95 3.25407C210.867 3.65365 209.878 4.27015 209.045 5.06527C207.25 6.79214 206.278 9.23815 206.305 11.9556C206.333 14.6075 207.332 16.9568 209.194 18.7274C211.122 20.5471 213.697 21.5353 216.356 21.476C222.802 21.2638 226.267 16.7649 229.051 11.9337C232.567 5.83276 236.545 2.77525 241.211 2.58337C244.087 2.46793 246.679 3.41951 248.496 5.26806C250.313 7.1166 251.166 9.65309 250.968 12.617C250.693 16.7914 247.67 19.6727 243.463 19.7928L243.261 19.7928C239.752 19.7928 237.043 17.3203 236.921 13.9679C236.859 12.2832 237.404 10.692 238.417 9.62345C238.812 9.1963 239.289 8.85273 239.821 8.61335C240.353 8.37398 240.928 8.24373 241.511 8.23041C243.488 8.16801 245.123 9.4269 245.263 11.0976C245.379 12.578 244.529 13.8291 243.33 13.9476C242.358 14.0428 241.665 13.5046 241.423 12.4735C241.41 12.417 241.385 12.3636 241.351 12.3164C241.317 12.2692 241.274 12.2292 241.225 12.1985C241.175 12.1679 241.12 12.1473 241.062 12.1378C241.004 12.1284 240.945 12.1303 240.888 12.1436C240.831 12.1568 240.778 12.181 240.73 12.2148C240.683 12.2487 240.642 12.2915 240.612 12.3408C240.581 12.3901 240.56 12.445 240.55 12.5023C240.541 12.5596 240.543 12.6182 240.556 12.6747C240.9 14.1411 241.998 14.9679 243.418 14.8275C245.104 14.6621 246.306 12.993 246.15 11.0274C245.981 8.88559 243.928 7.26636 241.483 7.34592C240.782 7.36209 240.091 7.51866 239.452 7.80628C238.814 8.0939 238.24 8.50663 237.766 9.01975C236.594 10.2677 235.961 12.0819 236.03 14.0007C236.172 17.8413 239.261 20.6773 243.254 20.6773L243.484 20.6773C248.11 20.5525 251.551 17.2641 251.853 12.681C252.065 9.45966 251.124 6.6845 249.131 4.65656C247.267 2.75497 244.566 1.69108 241.659 1.69108Z" fill="#966940"/>
<path d="M223.855 3.47575L223.799 3.47575C223.741 3.48269 223.685 3.50097 223.634 3.52955C223.583 3.55814 223.538 3.59645 223.502 3.64227C223.466 3.6881 223.44 3.74054 223.425 3.79657C223.409 3.85259 223.405 3.91109 223.413 3.96869C223.976 8.38024 226.822 9.9714 229.573 11.5095C232.243 13.0055 234.775 14.4173 235.024 18.4498C235.025 18.5101 235.037 18.5697 235.062 18.6249C235.086 18.6802 235.121 18.7299 235.166 18.7711C235.21 18.8123 235.262 18.8441 235.32 18.8645C235.377 18.8849 235.437 18.8935 235.498 18.8898C235.559 18.8861 235.618 18.8701 235.672 18.8428C235.726 18.8156 235.774 18.7777 235.813 18.7314C235.852 18.6851 235.881 18.6314 235.898 18.5736C235.915 18.5157 235.921 18.455 235.913 18.3952C235.634 13.8822 232.772 12.2848 230.01 10.7389C227.34 9.24134 224.804 7.82802 224.297 3.85793C224.282 3.7522 224.229 3.6554 224.148 3.58522C224.067 3.51505 223.963 3.47619 223.855 3.47575Z" fill="#966940"/>
<path d="M239.426 0.00139849L239.41 0.00139849C234.083 0.193275 229.439 4.8981 226.87 9.23634C224.079 13.949 221.361 17.8442 216.404 17.7849C213.263 17.7475 211.121 16.2702 209.862 13.2704C209.812 13.169 209.725 13.0904 209.618 13.0507C209.512 13.011 209.394 13.0131 209.289 13.0568C209.184 13.1004 209.1 13.1822 209.054 13.2854C209.008 13.3886 209.003 13.5054 209.04 13.612C210.432 16.9254 212.905 18.6273 216.393 18.6694L216.516 18.6694C222.316 18.6694 225.265 13.6916 227.636 9.6856C230.086 5.5486 234.474 1.06373 239.441 0.885891C239.555 0.877491 239.661 0.826229 239.738 0.742625C239.814 0.659022 239.856 0.549418 239.854 0.43628C239.852 0.323143 239.807 0.215056 239.727 0.134192C239.647 0.0533279 239.539 0.00581589 239.426 0.00139849ZM241.684 3.86697C241.009 3.86683 240.337 3.9427 239.68 4.09316C235.396 5.08373 232.497 8.89471 230.82 11.9179C228.084 16.8474 225.182 20.4727 219.916 22.1387C219.86 22.1563 219.809 22.1847 219.764 22.2221C219.719 22.2596 219.682 22.3054 219.656 22.357C219.629 22.4085 219.612 22.4648 219.607 22.5227C219.603 22.5805 219.609 22.6388 219.627 22.6941C219.645 22.7494 219.673 22.8007 219.711 22.845C219.749 22.8894 219.795 22.9259 219.847 22.9526C219.899 22.9793 219.955 22.9955 220.013 23.0004C220.072 23.0053 220.13 22.9987 220.186 22.9811C225.733 21.2261 228.761 17.4604 231.598 12.3453C233.189 9.47969 235.917 5.87151 239.881 4.95426C242.05 4.45351 244.399 4.88718 246.015 6.08366C246.613 6.50993 247.108 7.06437 247.461 7.70594C247.814 8.34751 248.018 9.05981 248.057 9.79012C248.065 9.90683 248.119 10.0157 248.207 10.0933C248.295 10.1709 248.41 10.2111 248.528 10.2051C248.586 10.2017 248.643 10.1869 248.696 10.1615C248.749 10.1362 248.796 10.1007 248.835 10.0572C248.873 10.0137 248.903 9.96309 248.922 9.90815C248.941 9.85321 248.949 9.79507 248.946 9.73707C248.902 8.87676 248.663 8.03737 248.247 7.28121C247.832 6.52505 247.251 5.87154 246.546 5.3692C245.224 4.39267 243.471 3.86541 241.684 3.86541L241.684 3.86697Z" fill="#966940"/>
<path d="M199.208 5.63787C198.195 5.63787 197.369 5.96234 196.827 6.58944C196.425 7.05743 196.042 7.88888 196.546 9.21329C196.774 9.78827 197.077 10.3311 197.447 10.8278C194.371 11.0494 190.999 12.6452 190.148 15.23C190.008 15.6568 189.968 16.1095 190.03 16.554C190.092 16.9985 190.255 17.4233 190.506 17.7962C190.816 18.2622 191.22 18.6598 191.692 18.9646C190.996 19.5948 190.441 20.362 190.06 21.2171C190.014 21.3251 190.013 21.4468 190.058 21.5553C190.102 21.6638 190.188 21.7504 190.297 21.7959C190.406 21.8414 190.528 21.8421 190.638 21.798C190.747 21.7538 190.834 21.6683 190.88 21.5603C191.258 20.7308 191.824 19.9987 192.532 19.4201C193.132 19.6751 193.767 19.8391 194.416 19.9068C197.108 20.2016 200.507 19.0972 201.64 17.9522C201.975 17.6136 202.121 17.2673 202.075 16.9226C202.027 16.5513 201.761 15.9039 200.489 15.7339C198.576 15.4765 194.936 16.4234 192.406 18.3671C191.946 18.1121 191.554 17.753 191.26 17.3188C191.08 17.0565 190.963 16.7567 190.918 16.4424C190.873 16.1282 190.901 15.8078 191.001 15.5061C191.696 13.3908 194.88 11.6967 198.143 11.6858C199.845 13.617 202.349 15.294 203.902 15.5233C204.715 15.6434 205.13 15.3501 205.336 15.0818C205.485 14.8891 205.574 14.6572 205.593 14.4147C205.611 14.1722 205.558 13.9297 205.439 13.7169C204.719 12.2458 201.551 10.9183 198.565 10.8091C198.073 10.2414 197.674 9.59885 197.386 8.90598C197.11 8.16656 197.151 7.58157 197.509 7.16819C198.195 6.37417 199.448 6.48336 200.134 6.61908C201.268 6.85621 202.327 7.36315 203.22 8.09636C204.827 9.46912 205.753 10.5673 206.361 12.7559C206.377 12.812 206.403 12.8644 206.439 12.9104C206.474 12.9563 206.519 12.9948 206.57 13.0236C206.62 13.0524 206.676 13.071 206.734 13.0784C206.792 13.0857 206.851 13.0816 206.908 13.0664C206.964 13.0511 207.017 13.025 207.063 12.9894C207.109 12.9539 207.148 12.9096 207.177 12.8592C207.206 12.8088 207.225 12.7532 207.232 12.6956C207.24 12.638 207.236 12.5795 207.22 12.5235C206.559 10.1274 205.51 8.88258 203.806 7.42558C202.797 6.59105 201.597 6.01616 200.312 5.75174C199.948 5.67809 199.579 5.63995 199.208 5.63787ZM204.263 14.6653C204.187 14.6646 204.111 14.6583 204.035 14.6466C202.851 14.4719 200.945 13.2427 199.443 11.7607C202.099 12.0727 204.229 13.2614 204.64 14.1006C204.753 14.3315 204.698 14.4532 204.629 14.5436C204.58 14.5889 204.523 14.6233 204.459 14.6443C204.396 14.6653 204.329 14.6725 204.263 14.6653ZM193.366 18.7852C195.668 17.2065 198.798 16.3969 200.371 16.6012C200.605 16.6324 201.157 16.7369 201.194 17.0287C201.194 17.0552 201.171 17.1581 201.006 17.325C200.145 18.1971 197.042 19.2937 194.52 19.0192C194.126 18.9802 193.736 18.9018 193.358 18.7852L193.366 18.7852Z" fill="#966940"/>
</g>
<defs>
<clipPath id="clip0_845_4">
<rect width="125" height="23" fill="white" transform="matrix(1 -1.74846e-07 -1.74846e-07 -1 190 23)"/>
</clipPath>
</defs>
</svg>
